<?xml version="1.0" encoding="UTF-8"?>
<!DOCTYPE svg PUBLIC "-//W3C//DTD SVG 1.1//EN" "http://www.w3.org/Graphics/SVG/1.1/DTD/svg11.dtd">
<svg version="1.1" xmlns="http://www.w3.org/2000/svg" xmlns:xlink="http://www.w3.org/1999/xlink" x="0" y="0" width="192" height="192" viewBox="0, 0, 192, 192">
  <g id="Layer_12">
    <path d="M0,0 L192,0 L192,192 L0,192 L0,0 z" fill="#FFFFF3"/>
  </g>
  <g id="eyes">
    <path d="M62,12 C65.314,12 68,14.686 68,18 L68,62 C68,65.313 65.314,68 62,68 L18,68 C14.686,68 12,65.313 12,62 L12,18 C12,14.686 14.686,12 18,12 L62,12 z M56,20 L24,20 C21.791,20 20,21.791 20,24 L20,56 C20,58.209 21.791,60 24,60 L56,60 C58.209,60 60,58.209 60,56 L60,24 C60,21.791 58.209,20 56,20 z M48,28 C50.209,28 52,29.791 52,32 L52,48 C52,50.209 50.209,52 48,52 L32,52 C29.791,52 28,50.209 28,48 L28,32 C28,29.791 29.791,28 32,28 L48,28 z" fill="#CC3B33"/>
    <path d="M34,108 C35.105,108 36,108.895 36,110 L36,114 C36,115.104 35.105,116 34,116 L30,116 C28.895,116 28,115.104 28,114 L28,110 C28,108.895 28.895,108 30,108 L34,108 z" fill="#CC3B33"/>
    <path d="M18,100 C19.105,100 20,100.895 20,102 L20,106 C20,107.104 19.105,108 18,108 L14,108 C12.895,108 12,107.104 12,106 L12,102 C12,100.895 12.895,100 14,100 L18,100 z" fill="#CC3B33"/>
    <path d="M78,12 L82,12 C83.105,12 84,12.895 84,14 L84,18 C84,19.104 83.105,20 82,20 L78,20 C76.895,20 76,19.104 76,18 L76,14 C76,12.895 76.895,12 78,12 z" fill="#CC3B33"/>
    <path d="M90,27.999 C91.105,28 92,28.895 92,30 L92,34 C92.193,35.185 92.851,35.822 94,36 L93.998,36 L94,36 L98,35.999 C99.105,36 100,36.895 100,38 L100,49.999 L100,50 C100.192,51.21 100.907,51.687 102,52 L106,51.999 C107.105,52 108,52.895 108,54 L108,58 C108.192,59.21 108.907,59.687 109.999,60 L110,59.999 L114,59.999 C115.105,60 116,60.895 116,62 L116,65.999 C116,67.104 115.105,68 114,68 L110,67.999 C108.895,68 108,67.104 108,66 L108,61.999 L108,61.999 C107.807,60.814 107.149,60.177 106,60 L106,59.999 L106,59.999 L102,59.999 C101.684,59.99 101.507,59.924 102,60 C100.814,60.192 100.177,60.851 100,61.999 L100,62 L100,66 C100,67.104 99.105,68 98,68 L94,68 C92.895,68 92,67.104 92,66 L92,62 C92,60.895 92.895,60 94,60 L98,60 C98.316,60.009 98.493,60.075 98,60 C99.2,59.757 99.882,59.33 100,58 L100,53.999 L100,53.999 C99.807,52.814 99.149,52.177 98,52 L98,51.999 L98,51.999 L86,51.999 C84.895,52 84,51.104 84,50 L84,45.999 C83.807,44.814 83.149,44.177 82,44 L82,43.999 L82,43.999 L78,43.999 C76.895,44 76,43.104 76,42 L76,29.999 C76,28.895 76.895,28 78,28 L90,27.999 z M107.999,58.002 L107.999,58.002 L107.999,58.008 L108,58.002 L107.999,58.002 z M90,35.999 L90,35.999 L86,35.999 C84.895,36 84,36.895 84,38 L84,42 C84.193,43.185 84.851,43.822 86,44 L85.998,44 L86,44 L90,43.999 C91.105,44 92,43.104 92,42 L92,37.999 C91.807,36.814 91.149,36.177 90,36 L90,35.999 z M84,42.002 L84,42.002 L83.999,42.003 L84,42.002 z M92,34.002 L92,34.002 L92,34.002 L92,34.002 z" fill="#CC3B33"/>
    <g>
      <path d="M78,164 L82,164 C83.105,164 84,164.895 84,166 L84,170 C84,171.104 83.105,172 82,172 L78,172 C76.895,172 76,171.104 76,170 L76,166 C76,164.895 76.895,164 78,164 z" fill="#CC3B33"/>
      <g>
        <path d="M82,52 C83.105,52 84,52.896 84,54 L84,82 C84.193,83.186 84.851,83.823 86,84 L97.999,83.999 L97.999,83.999 C99.2,83.758 99.882,83.331 100,82 L99.999,77.999 C100,76.895 100.895,76 102,76 L105.999,75.999 C107.104,76 108,76.895 108,78 L107.999,81.999 C108.192,83.21 108.907,83.687 109.999,84 L109.999,83.999 L113.999,83.999 L114.003,84 L113.999,83.999 C115.2,83.758 115.882,83.331 116,82 L115.999,77.999 C116,76.896 116.896,76 118,76 L137.999,75.999 C139.27,76.257 138.591,75.97 139.843,77.222 C139.843,77.222 139.843,77.222 139.843,77.222 C139.895,77.481 139.948,77.741 140,78 L139.999,81.999 C140.118,83.33 140.8,83.758 141.999,84 L145.999,83.999 C147.33,83.883 147.758,83.201 148,82.001 L147.999,77.999 C148,76.896 148.896,76 150,76 L161.999,75.999 C163.085,76.219 162.591,75.97 163.442,76.82 C164.03,77.409 163.806,77.036 164,78 L163.999,81.999 C163.744,83.271 164.03,82.592 162.779,83.843 L161.999,83.999 L157.999,83.999 C156.896,84 156,84.896 156,86 L155.999,89.999 C155.808,90.952 156.03,90.592 155.468,91.154 C154.592,92.03 155.097,91.779 154,92 L149.999,91.999 L141.998,91.999 C140.763,92.059 140.304,92.929 140,94 L139.999,97.999 C140.118,99.331 140.8,99.758 142,100 L153.999,99.999 C155.105,100 156,100.896 156,102 L155.999,105.999 C156,107.105 155.105,108 154,108 L146,107.999 L145.999,107.999 L141.999,107.999 C140.764,108.059 140.304,108.928 140,110 L139.999,122 C140,123.105 140.896,124 142,124 L145.999,124 L146,124 C147.211,123.808 147.687,123.093 148,122 L148,122 L148,118 C148,116.896 148.896,116 150,116 L170,116 C171.105,116 172,115.105 172,114 L172,78 C172,76.896 172.896,76 174,76 L178,76 C179.105,76 180,76.896 180,78 L180,122 C180,123.105 179.105,124 178,124 L174,124 C172.896,124 172,124.896 172,126 L172,130 C172,131.105 171.105,132 170,132 L158,132 C156.896,132 156,131.105 156,130 L156,126 L155.842,125.221 C155.025,124.334 155.142,124.218 154,124 L150,124 L149.999,124 C148.8,124.243 148.118,124.654 148,125.985 C147.923,125.525 148,126.032 148,126 L147.999,130 C148,131.105 147.105,132 146,132 L125.999,132 C124.669,132.118 124.242,132.8 124,134 L123.999,138 C124.118,139.331 124.8,139.758 126,140 L129.999,140 C131.331,140.118 131.758,140.801 132,142 L131.999,146 L131.999,146.01 L132,146 C132.242,147.2 132.669,147.882 134,148 L133.989,148.003 L134,148 L138,148 C139.105,148 140,147.105 140,146 L140,142 C140,140.896 140.896,140 142,140 L146,140 C147.105,140 148,140.896 148,142 L148,148 L154,148 C155.105,148 156,148.896 156,150 L156,154 C156.242,155.2 156.669,155.882 158,156 L157.999,156.001 L158,156 L162,156 L162.002,156.001 L162,156 C163.186,155.808 163.823,155.149 164,154.001 L164,154 L164,142 C164,140.896 164.896,140 166,140 L170,140 C171.105,140 172,140.896 172,142 L172,146 C172,147.105 172.896,148 174,148 L178,148 C179.105,148 180,148.896 180,150 L180,162 C180,163.105 179.105,164 178,164 L174,164 C172.896,164 172,163.105 172,162 L172,158 C172,156.896 171.105,156 170,156 L166,156 L166,156 C164.789,156.193 164.313,156.908 164,158 L164,162 C164,163.105 163.105,164 162,164 L158,164 C156.896,164 156,163.105 156,162 L156,158 L156,157.999 L156,158 C155.758,156.801 155.331,156.118 154,156 L154.001,156 L154,156 L150,156 C148.896,156 148,156.896 148,158 L148,162 C147.99,162.316 147.924,162.492 148,162 C148.242,163.2 148.669,163.882 150,164 L149.999,164 L150,164 L154,164 C155.105,164 156,164.895 156,166 L156,178 C156,179.104 155.105,180 154,180 L150,180 C148.895,180 148,179.104 148,178 L148,166 C148.01,165.684 148.076,165.507 148,166 C147.807,164.816 147.15,164.177 146.002,164 L146,164 L142,164 C140.896,164 140,164.896 140,166 L140,178 C140,179.105 139.105,180 138,180 L134,180 C132.896,180 132,179.105 132,178 L132,174 C132,172.896 131.105,172 130,172 L118,172 L117.998,172 C116.814,172.193 116.177,172.852 116,174 L116,178 C116,179.104 115.105,180 114,180 L102,180 C100.896,180 100,179.104 100,178 L100,174 C100,172.895 100.896,172 102,172 L114,172 L114.002,172 L114,172 C115.2,171.757 115.882,171.33 116,170 L116,166 C115.808,164.815 115.149,164.178 114.001,164 L110,164 C108.896,164 108,163.105 108,162 L108,158 C107.758,156.801 107.331,156.118 106,156 L106.001,156 L106,156 L102,156 C100.896,156 100,156.896 100,158 L100,162 C100,163.105 99.105,164 98,164 L90,164 L90,164 L86,164 L85.221,163.843 C84.872,163.479 84.459,163.191 84.163,162.785 C84.161,162.783 84.159,162.781 84.157,162.779 C84.144,162.714 84.131,162.649 84.118,162.584 C84.046,162.263 84.087,162.457 84,162 L84,158 C83.882,156.67 83.2,156.243 82,156 L78,156 C76.896,156 76,155.105 76,154 L76,150 C76,148.896 76.896,148 78,148 L90,148 L90.778,147.843 C92.03,146.592 91.744,147.271 92,146 L92,142 C91.945,142.058 91.961,142.053 91.986,141.952 C91.796,140.786 91.124,140.174 90,140 L90,140 L90,140 L78,140 C76.896,140 76,139.105 76,138 L76,118 C76,116.896 76.896,116 78,116 L82,116 C83.105,116 84,116.896 84,118 L84,130 C84,131.105 84.896,132 86,132 L90,132 L90.003,132.001 L90,132 C91.185,131.808 91.823,131.149 92,130.001 L92,130 L92,110 C92,108.896 92.896,108 94,108 L98,108 C99.105,108 100,108.896 100,110 L100,130 C100.192,131.211 100.907,131.688 102,132 L102,132 L101.999,132 L114,132 C115.331,131.882 115.758,131.2 116,130 L115.999,126 C116,124.896 115.105,124 114,124 L109.999,124 C108.896,124 108,123.105 108,122 L107.999,121.999 L107.999,106 L107.999,105.999 L107.999,101.999 C107.882,100.669 107.2,100.243 106,100 L77.999,99.999 L77.997,100 L77.999,100 C76.815,100.193 76.177,100.851 76,102 L76,106 C76,107.105 75.105,108 74,108 L70,108 L69.999,108 C68.815,108.193 68.177,108.851 68,110 L68,114 C68,115.105 67.105,116 66,116 L46,116 C44.896,116 44,115.105 44,114 L44,110 C44,108.896 44.896,108 46,108 L66,108 L66,108 C67.186,107.807 67.823,107.149 68,106 L68,106 L68,102.024 C67.981,102.04 67.991,102.035 67.998,101.991 C67.805,100.809 67.144,100.177 66,100 L66,99.999 L66,100 L54,100 C52.896,100 52,99.105 52,98 L52,94 C52,92.896 52.896,92 54,92 L66,92 C67.105,92 68,92.896 68,94 L68,98 L68,98.002 L68.044,97.999 C68.095,97.937 68.074,97.956 68.025,98.084 C68.173,99.177 69.062,99.662 70,100 L70,100 L74,100 L74,100 C75.186,99.807 75.823,99.149 76,98 L75.999,93.999 C76,92.896 76.896,92 78,92 L81.999,91.999 C83.105,92 84,91.105 84,90 L83.999,85.999 L83.999,85.998 C83.807,84.814 83.148,84.177 82,84 L82,84 L82,84 L78,84 L77.999,84 L58,84 L58,84 L54.041,84 C54.074,84.042 54.066,84.023 53.978,84.007 C52.778,84.197 52.309,84.921 52,86 L52,90 C52,91.105 51.105,92 50,92 L46,92 C44.896,92 44,91.105 44,90 L44,86 C43.758,84.8 43.331,84.118 42,84 L42,84 L42,84 L37.999,84 C36.815,84.193 36.177,84.851 36,86 L36,98 C36,99.105 35.105,100 34,100 L30,100 C28.896,100 28,99.105 28,98 L28,86 L28,85.998 L28,86 C27.758,84.8 27.331,84.118 26,84 L26,84 L26,84 L22,84 L21.996,83.999 L21.999,84 C20.815,84.193 20.177,84.851 20,86 L20,90 C20,91.105 19.105,92 18,92 L14,92 C12.896,92 12,91.105 12,90 L12,86 C12,84.896 12.896,84 14,84 L18,84 C19.186,83.808 19.823,83.149 20,82 L20,82 L20,78 C20,76.896 20.896,76 22,76 L26,76 C27.105,76 28,76.896 28,78 L28,82 C28.193,83.21 28.907,83.687 30,84 L30,84 L34,84 C35.2,83.758 35.882,83.331 36,82 L36,78 C36,76.896 36.896,76 38,76 L42,76 C43.105,76 44,76.896 44,78 L44,82 C44.193,83.186 44.851,83.823 46,84 L46,84 L50,84 L50,84 C51.186,83.807 51.823,83.149 52,82 L52,82 L52,78 C52,76.896 52.896,76 54,76 L74,76 C75.105,76 76,75.105 76,74 L76,54 C76,52.896 76.896,52 78,52 L82,52 z M109.989,147.999 L110,148 C108.8,148.243 108.118,148.67 108,150 L108,154 C108.193,155.186 108.851,155.823 110,156 L110,156 L114,156 C115.105,156 116,156.896 116,158 L116,162 C116.193,163.186 116.851,163.823 118,164 L118,164 L130,164 C131.105,164 132,163.105 132,162 L132,158 L132,158 L132,150 C132.01,149.684 132.076,149.507 132,150 C131.808,148.816 131.15,148.177 130.002,148 L130,148 L117.999,148 L109.999,148 L109.989,147.999 z M101.999,140 L101.993,140 L102,140 L101.96,140.012 C102,140.044 101.998,140.036 101.938,140.019 C100.756,140.207 100.302,140.945 100,142 L100,146 C100,147.105 100.896,148 102,148 L106,148 L106,148 C107.186,147.808 107.823,147.149 108,146.001 L108,146 L107.999,142 C108,140.896 107.105,140 106,140 L101.999,140 z M98.005,131.999 L98,132 L94,132 L93.995,132 L94,132 L93.983,132.005 C94.03,132.049 94.027,132.037 93.947,132.016 C92.761,132.205 92.304,132.939 92,134 L92,138 C92.193,139.211 92.907,139.688 94,140 L94,140 L98,140 L98.007,139.998 C97.958,139.95 97.962,139.964 98.05,139.986 C99.216,139.796 99.827,139.123 100,138 L100,138 L99.999,134 L99.999,133.999 L99.996,133.987 C99.953,134.032 99.965,134.028 99.985,133.95 C99.796,132.763 99.062,132.305 98,132 L98.005,131.999 z M117.998,99.999 C116.669,100.119 116.242,100.801 116,102 L115.999,113.999 C116,115.105 116.896,116 118,116 L129.999,115.999 C131.105,116 132,115.105 132,114 L131.999,109.999 C131.882,108.669 131.2,108.243 130,108 L125.999,108 C124.896,108 124,107.105 124,106 L123.999,105.999 L123.999,101.999 L123.999,101.999 C123.807,100.814 123.148,100.178 122.001,100 L122,100 L117.998,99.999 z M125.999,83.999 L117.999,83.999 C118.049,84.051 118.045,84.036 117.953,84.013 C116.765,84.202 116.305,84.934 116,85.999 L116,86 L115.999,89.999 C116.118,91.33 116.8,91.758 117.999,92 L121.999,91.999 C123.331,92.118 123.758,92.8 124,94 L123.999,97.999 L123.999,98.007 L124,98 L124,98 C124.193,99.186 124.851,99.823 126,100 L126,100 L129.999,99.999 C131.105,100 132,99.105 132,98 L131.999,90 L131.999,89.999 L131.999,85.999 L131.999,85.999 C131.882,84.669 131.2,84.243 130,84 L125.999,83.999 z M105.999,83.999 L105.999,83.999 L101.999,83.999 C102.05,84.051 102.046,84.036 101.953,84.013 C100.765,84.203 100.305,84.934 100,85.998 L100,86 L99.999,89.999 C100,91.105 100.896,92 102,92 L105.999,91.999 C107.331,91.883 107.758,91.201 108,90.001 L107.999,85.999 L107.999,85.999 C107.807,84.814 107.148,84.177 106,84 L105.999,83.999 z M44.112,85.445 C44.029,85.615 44.025,85.813 44,85.999 L44.112,85.445 z M108.11,85.446 C108.028,85.616 108.025,85.813 108,85.997 C108.033,85.813 108.069,85.629 108.111,85.447 L108.11,85.446 z" fill="#CC3B33"/>
        <path d="M166,172 L170,172 C171.105,172 172,172.895 172,174 L172,178 C172,179.104 171.105,180 170,180 L166,180 C164.895,180 164,179.104 164,178 L164,174 C164,172.895 164.895,172 166,172 z" fill="#CC3B33"/>
      </g>
    </g>
    <path d="M114,11.999 C115.105,12 116,12.895 116,14 L116,18 C116,19.104 115.105,20 114,20 L110,20 C108.895,20 108,20.895 108,22 L108,26 C108.193,27.185 108.851,27.822 110,28 L109.999,28 L110,28 L114,28 C115.105,28 116,28.895 116,30 L116,42 C116,43.104 115.105,44 114,44 L110,44 C108.895,44 108,43.104 108,42 L108,30 C108.01,29.683 108.076,29.507 108,29.999 C107.758,28.8 107.331,28.118 106,28 L106,27.999 L106,28 L102,28 C100.895,28 100,27.104 100,26 L100,14 C100,12.895 100.895,12 102,12 L114,11.999 z M108,26.002 C108.102,26.35 107.924,26.492 108,26.002 z" fill="#CC3B33"/>
    <path d="M62,124 C65.314,124.001 68,126.687 68,130.001 L68,174 C68,177.314 65.314,180.001 62,180 L18,180 C14.686,180.001 12,177.314 12,174 L12,130 C12,126.687 14.686,124.001 18,124.001 L62,124 z M56,132 L24,132.001 C21.791,132.001 20,133.791 20,136 L20,168.001 C20,170.21 21.791,172.001 24,172 L56,172.001 C58.209,172.001 60,170.21 60,168 L60,136.001 C60,133.791 58.209,132.001 56,132 z M48,140 C50.209,140.001 52,141.791 52,144 L52,160 C52,162.21 50.209,164.001 48,164 L32,164 C29.791,164.001 28,162.21 28,160 L28,144 C28,141.791 29.791,140.001 32,140 L48,140 z" fill="#CC3B33"/>
    <path d="M174,12 C177.314,12 180,14.686 180,18 L180,62 C180,65.313 177.314,68 174,68 L130,68 C126.687,68 124,65.313 124,62 L124,18 C124,14.686 126.687,12 130,12 L174,12 z M168,20 L136,20 C133.791,20 132,21.791 132,24 L132,56 C132,58.209 133.791,60 136,60 L168,60 C170.21,60 172,58.209 172,56 L172,24 C172,21.791 170.21,20 168,20 z M160,28 C162.21,28 164,29.791 164,32 L164,48 C164,50.209 162.21,52 160,52 L144,52 C141.791,52 140,50.209 140,48 L140,32 C140,29.791 141.791,28 144,28 L160,28 z" fill="#CC3B33"/>
  </g>
</svg>
