<?xml version="1.0" standalone="no"?>
<!DOCTYPE svg PUBLIC "-//W3C//DTD SVG 20010904//EN"
 "http://www.w3.org/TR/2001/REC-SVG-20010904/DTD/svg10.dtd">
<svg version="1.0" xmlns="http://www.w3.org/2000/svg"
 width="192.000000pt" height="192.000000pt" viewBox="0 0 192.000000 192.000000"
 preserveAspectRatio="xMidYMid meet">
<metadata>
Created by potrace 1.14, written by Peter Selinger 2001-2017
</metadata>
<g transform="translate(0.000000,192.000000) scale(0.100000,-0.100000)"
fill="#000000" stroke="none">
<path d="M0 1600 l0 -320 320 0 320 0 0 320 0 320 -320 0 -320 0 0 -320z m546
1 l-1 -226 -225 0 -225 0 -2 215 c-1 118 0 220 2 226 2 8 71 11 228 11 l224
-1 -1 -225z"/>
<path d="M186 1730 c-2 -3 -3 -62 -3 -132 0 -83 4 -128 11 -131 6 -2 67 -4
136 -3 l125 1 1 133 c1 115 0 132 -15 133 -50 5 -253 4 -255 -1z"/>
<path d="M734 1693 l1 -228 87 -1 c94 -2 95 -1 93 57 -1 35 0 36 35 34 51 -3
56 1 55 45 -1 29 3 40 14 42 66 7 83 -2 77 -39 -8 -39 2 -50 42 -47 20 1 39 2
42 3 3 1 7 39 8 86 1 61 -2 85 -11 86 -6 1 -25 2 -40 3 -35 1 -44 16 -39 61 3
26 9 35 21 34 9 -1 28 -1 43 0 26 1 27 3 25 46 l-2 46 -90 -3 -89 -3 -1 -37
c-2 -47 -6 -51 -52 -52 -36 -1 -37 -2 -38 -39 -2 -44 7 -52 55 -52 34 -1 34
-2 36 -43 0 -24 -4 -43 -10 -43 -6 -1 -22 -2 -36 -3 -37 -2 -48 -12 -45 -46 3
-36 -9 -46 -54 -45 -32 0 -34 2 -36 37 -3 45 8 56 55 55 35 -2 35 -2 35 43 0
44 0 45 -35 46 -19 1 -40 2 -45 3 -6 1 -10 37 -10 89 l0 87 -46 3 -46 3 1
-228z"/>
<path d="M1280 1600 l0 -320 320 0 320 0 0 320 0 320 -320 0 -320 0 0 -320z
m546 1 l-1 -226 -225 0 -225 0 -1 220 c-1 121 0 223 2 226 2 3 104 6 227 6
l223 0 0 -226z"/>
<path d="M1465 1730 c-3 -5 0 -249 3 -261 1 -4 62 -6 135 -5 l132 1 2 110 c1
61 0 121 -3 135 l-5 25 -130 0 c-72 0 -132 -2 -134 -5z"/>
<path d="M749 1372 c-13 -2 -16 -19 -17 -88 0 -47 -3 -88 -6 -92 -4 -3 -44 -5
-90 -5 l-84 1 -4 -28 c-9 -58 1 -64 91 -65 45 0 85 4 89 9 3 6 5 27 3 47 -2
38 -2 38 38 37 21 0 43 2 48 5 7 4 10 136 4 168 -1 8 -50 16 -72 11z"/>
<path d="M929 1370 c-9 -6 -14 -32 -15 -82 -1 -94 5 -105 50 -100 20 2 37 7
37 11 5 25 3 163 -1 166 -16 10 -58 12 -71 5z"/>
<path d="M1123 1372 c-24 -4 -25 -6 -27 -59 -1 -33 -1 -33 45 -33 l46 0 1 44
c2 38 -1 44 -20 48 -13 2 -33 2 -45 0z"/>
<path d="M94 1175 c-3 -7 -4 -16 -3 -21 1 -5 1 -21 0 -35 -1 -24 -4 -26 -43
-25 l-43 1 0 -45 0 -45 37 0 c45 0 50 -4 51 -51 2 -38 2 -38 46 -39 l44 -1 1
-89 1 -90 45 0 44 0 1 225 0 225 -88 1 c-61 1 -90 -3 -93 -11z m84 -92 c6 -10
7 -45 3 -73 -1 -3 -21 -5 -45 -6 l-45 0 1 40 c0 23 2 44 4 48 7 11 75 3 82 -9z"/>
<path d="M369 1183 c-1 -5 -2 -62 -3 -127 -1 -133 5 -150 55 -141 31 6 31 6
33 -57 1 -32 0 -33 -39 -33 -48 0 -52 -4 -50 -52 l2 -38 136 -1 136 -1 3 46 3
45 88 -1 c60 -1 87 2 88 10 1 7 2 23 4 37 1 14 3 30 3 37 1 7 16 10 37 9 40
-4 53 8 50 47 -2 31 9 41 45 43 14 1 30 2 36 3 6 0 10 19 10 44 l-2 42 -89 0
-90 0 0 -43 c0 -23 -2 -42 -5 -43 -3 -1 -83 -2 -179 -3 -132 -1 -175 2 -178
12 -3 7 -6 45 -8 85 -1 39 -3 75 -4 80 0 4 -19 7 -41 7 -22 0 -40 -3 -41 -7z
m269 -315 l3 -47 -33 1 c-48 1 -63 12 -62 45 1 42 8 49 51 48 l38 0 3 -47z"/>
<path d="M1282 1141 l3 -46 39 2 c46 2 53 11 48 56 -4 32 -5 34 -48 34 l-45 1
3 -47z"/>
<path d="M1464 1178 c-3 -5 -5 -18 -4 -31 4 -50 2 -53 -42 -53 l-43 1 -2 -150
c-2 -228 -1 -216 -20 -214 -10 1 -30 1 -45 0 -26 -1 -28 -4 -28 -46 l0 -45
-45 0 c-29 0 -45 5 -46 13 -1 6 -1 108 -1 225 0 116 -3 213 -7 213 -36 6 -73
4 -79 -5 -3 -6 -7 -27 -7 -46 0 -32 -3 -35 -30 -36 -64 -1 -61 3 -60 -93 l2
-90 -39 2 c-47 3 -56 -6 -53 -53 2 -34 2 -35 45 -35 l44 0 1 40 c0 36 3 40 30
46 54 10 61 0 60 -95 l-1 -86 48 0 47 0 -1 -45 c-1 -47 -4 -50 -58 -45 -33 3
-34 4 -35 48 l0 37 -90 3 -90 3 0 -40 c0 -49 4 -53 52 -54 38 -2 38 -2 38 -45
0 -44 1 -45 58 -45 18 1 27 -4 29 -16 1 -15 4 -44 7 -67 0 -6 20 -10 44 -9 40
1 42 3 43 32 2 51 9 59 50 58 l39 0 5 -90 5 -90 35 0 c48 -1 58 -9 54 -47 -5
-38 -19 -49 -59 -46 l-30 3 -3 -92 -3 -93 94 0 94 0 -2 45 c-3 51 -15 46 115
49 l64 1 1 40 c0 36 3 40 30 46 54 10 61 0 60 -95 l-1 -86 93 0 93 0 0 45 c0
48 -2 49 -62 45 -29 -2 -33 6 -28 60 3 32 3 33 47 34 38 1 38 1 41 47 l3 45
-46 -1 c-42 -2 -45 0 -46 24 -1 14 -1 33 0 42 2 23 -32 31 -89 20 -9 -2 -6
-69 3 -78 5 -4 25 -8 45 -8 l37 0 0 -45 0 -45 -45 -3 -45 -3 0 48 0 48 -40 -2
c-22 0 -43 -1 -47 -2 -3 -1 -5 -21 -2 -45 l3 -44 -47 1 -47 2 -1 83 c0 45 -4
85 -8 90 -4 4 -44 7 -89 7 l-82 1 -2 29 c0 17 -2 37 -2 46 -1 12 -11 15 -43
15 l-43 -1 -3 92 -3 93 46 0 c47 0 49 -2 45 -52 -1 -14 4 -29 11 -34 9 -5 400
-9 517 -5 22 1 22 3 22 136 0 74 -3 135 -7 136 -53 5 -76 2 -82 -11 -3 -8 -6
-50 -5 -92 l1 -78 -43 0 c-44 0 -50 6 -45 47 1 7 -2 21 -8 30 -8 16 -24 18
-135 17 -69 -1 -126 2 -127 5 -12 69 4 96 50 84 32 -8 36 4 36 96 0 45 3 82 7
82 5 1 21 2 37 3 36 1 46 10 47 44 1 15 2 32 3 38 1 6 34 10 89 10 l87 -1 0
-45 0 -45 -42 0 c-24 0 -44 -4 -44 -10 -6 -39 -3 -75 6 -78 5 -2 46 -4 90 -3
l80 1 3 136 3 136 -226 0 c-124 0 -228 -4 -231 -9z"/>
<path d="M3 904 c-2 -7 -3 -27 -1 -46 3 -32 5 -33 45 -34 46 -1 51 6 45 62 -4
28 -6 30 -44 30 -22 0 -42 -5 -45 -12z"/>
<path d="M749 732 c-13 -2 -16 -18 -16 -92 0 -82 1 -88 21 -92 12 -2 32 -1 46
2 25 5 26 7 24 85 -1 44 -2 83 -3 86 -1 8 -50 16 -72 11z"/>
<path d="M0 320 l0 -320 320 0 320 0 0 320 0 320 -320 0 -320 0 0 -320z m545
0 l0 -225 -226 -1 -225 -1 -1 221 c0 122 1 224 3 227 2 3 104 6 226 5 l223 -1
0 -225z"/>
<path d="M186 450 c-5 -9 -5 -214 0 -241 l5 -26 132 1 132 1 1 125 c1 69 -1
130 -3 135 -3 11 -262 16 -267 5z"/>
<path d="M824 535 c-3 -7 -3 -27 -1 -44 6 -33 7 -32 -63 -35 -23 -1 -25 -5
-25 -46 l0 -45 45 0 44 0 -1 -38 c-1 -45 -6 -52 -41 -53 -15 -1 -32 -2 -39 -3
-8 -1 -11 -27 -10 -88 l2 -88 45 0 45 0 0 38 c0 45 18 60 61 48 23 -6 29 -13
30 -37 0 -16 2 -34 2 -40 1 -7 19 -11 44 -10 l42 1 1 128 c1 79 -3 131 -10
135 -5 4 -46 7 -90 7 l-80 0 0 45 c0 45 0 45 35 46 19 1 40 2 45 3 6 0 10 21
11 45 l0 44 -43 0 c-28 0 -46 -5 -49 -13z"/>
<path d="M1099 270 c-5 -26 -5 -80 0 -81 70 -15 89 -6 87 43 l-1 41 -42 1
c-24 1 -43 -1 -44 -4z"/>
<path d="M1120 90 c-21 -5 -25 -12 -25 -45 l0 -40 46 -3 47 -3 -2 42 c-1 46
-21 61 -66 49z"/>
</g>
</svg>
